# xmcd
#
# Track frame offsets: 
#        180
#        13785
#        35040
#        49830
#        66850
#        79097
#        94332
#        111597
#        136627
#        157225
#        181430
#        199702
#        222400
#        228760
#
# Disc length: 3250 seconds
#
# Revision: 3
# Processed by: cddbd v1.5.2PL0 Copyright (c) Steve Scherf et al.
# Submitted via: ExactAudioCopy v1.0b3
#
DISCID=c90cb00e
DTITLE=Alceu Valença - Sol E Chuva
DYEAR=1997
DGENRE=MPB
TTITLE0=Girassol
TTITLE1=Tropicana (Morena tropicana)
TTITLE2=Descida da ladeira
TTITLE3=O ovo e a galinha
TTITLE4=Cana caiana
TTITLE5=Coração bobo - Pelas ruas que andei
TTITLE6=Meu forró é meu canto
TTITLE7=Bobo da côrte - Casaca de couro - Sol e chuva
TTITLE8=Como dois animais
TTITLE9=Na primeira manhã
TTITLE10=Solidão
TTITLE11=Anunciação - Tomara
TTITLE12=Um bouquê para uma rosa
TTITLE13=Beijando a flora
EXTD=
EXTT0=
EXTT1=
EXTT2=
EXTT3=
EXTT4=
EXTT5=Pelas Ruas Que Andei
EXTT6=
EXTT7=Casaca De Couro\nSol e Chuva\n
EXTT8=
EXTT9=
EXTT10=
EXTT11=Tomara
EXTT12=
EXTT13=
PLAYORDER=
